# xmcd CD database file
#
# Track frame offsets:
#	181
#	13539
#	27469
#	45639
#	60461
#	68304
#	81494
#	87611
#	101459
#	108766
#	128651
#	143099
#	159029
#	165391
#	173119
#
# Disc length: 2487 seconds
#
# Revision: 0
# Processed by: cddbd v1.4PL0 Copyright (c) Steve Scherf et al.
# Submitted via: CDex 1.40Release
#
DISCID=ae09b50f
DTITLE=Enya - The Celts
DYEAR=1992
DGENRE=New Age
TTITLE0=The Celts
TTITLE1=Aldeberan
TTITLE2=I Want Tomorrow
TTITLE3=March of the Celts
TTITLE4=Deireadh an Tuath
TTITLE5=The Sun in the Stream
TTITLE6=To Go Beyond (I)
TTITLE7=Fairytale
TTITLE8=Epona
TTITLE9=Triad: St Patrick
TTITLE10=Portrait (Out of the Blue)
TTITLE11=Boadicea
TTITLE12=Bard Dance
TTITLE13=Dan y Duor
TTITLE14=To Go Beyond (II)
EXTD=YEAR: 1992 ID3G: 10
EXTT0=
EXTT1=
EXTT2=
EXTT3=
EXTT4=
EXTT5=
EXTT6=
EXTT7=
EXTT8=
EXTT9=
EXTT10=
EXTT11=
EXTT12=
EXTT13=
EXTT14=
PLAYORDER=
